<?xml version="1.0" encoding="utf-8"?>
<!-- Generator: Adobe Illustrator 16.0.0, SVG Export Plug-In . SVG Version: 6.00 Build 0)  -->
<!DOCTYPE svg PUBLIC "-//W3C//DTD SVG 1.1//EN" "http://www.w3.org/Graphics/SVG/1.1/DTD/svg11.dtd">
<svg version="1.1" id="Layer_1" xmlns="http://www.w3.org/2000/svg" xmlns:xlink="http://www.w3.org/1999/xlink" x="0px" y="0px"
	 width="612px" height="792px" viewBox="0 0 612 792" enable-background="new 0 0 612 792" xml:space="preserve">
<path fill-rule="evenodd" clip-rule="evenodd" fill="#FFFFFF" d="M204,243c18.96,32.13,38.61,65.79,61,95
	c10.999,11.999,22.001,24.001,33,36c8.782,10.885,19.946,25.794,33,32c8.256,6.755,63.488-21.896,74-28
	c36.74-21.333,79.211-36.032,117-58c20.998-11.666,42.002-23.334,63-35c14.701-6.478,62.415-25.921,67-39
	c-20.998-12.332-42.002-24.668-63-37c-43.794-31.695-89.678-70.818-122-114c-18.645-24.91-23.097-68.032-67-68
	c-17.998,5.333-36.002,10.667-54,16c-49.329,16.332-98.671,32.668-148,49c-27.955,8.804-62.396,15.253-85,31
	c-9.634,6.712-13.405,23.138-20,33c-7.666,9.333-15.334,18.667-23,28c-34.871,43.541-86.173,84.994-139,110
	c-0.006,11.117,1.997,17.891,3,26c42.681-13.142,148.697-104.685,168-142c0.667-0.333,1.333-0.667,2-1
	c-2.787,15.442-16.022,24.501-24,35c-22.029,28.989-46.736,57.412-75,80c-16.926,13.527-41.379,27.647-52,47c0,3.667,0,7.334,0,11
	c0.333,0.333,0.667,0.667,1,1c15.135-3.871,30.664-16.153,43-24c-7.666,9.666-15.334,19.334-23,29c-7.909,5.881-3.593,6.176,0,14
	c1,0.667,2,1.333,3,2c35.316-25.409,80.517-78.82,107-114c16.231-21.562,27.944-41.283,49-58c1.333,0,2.667,0,4,0
	c7.459,15.25,10.199,34.246,17,51c29.959,73.803,81.918,180.685,137,228c32.127-3.714,60.756-26.841,86-40
	c56.615-29.512,117.795-57.072,174-86c19.566-10.07,73.018-24.693,75-49c-24.331,10.999-48.669,22.001-73,33
	c6.51-8.54,69.276-43.329,82-50c0-0.333,0-0.667,0-1c0-2.667,0-5.333,0-8c-26.245,3.774-52.141,27.631-75,38
	c-50.892,23.086-104.093,43.402-151,71c-19.988,11.76-58.799,38.908-84,41c-40.266-42.613-71.689-87.597-105-138
	c-17.845-27.001-45.98-58.247-46-101c0.667-0.333,1.333-0.667,2-1C185.333,206.332,194.667,224.668,204,243z M169,162
	c-25.06,15.031-34.562,15.347-53-7c0-1.333,0-2.667,0-4c5.933-4.518,10.62-7.137,18-11c24.063-0.537,24.835,8.621,35,21
	C169,161.333,169,161.667,169,162z"/>
<path fill-rule="evenodd" clip-rule="evenodd" fill="none" d="M206,305c0.63,31.4,74.468,136.737,95,152
	c39.771-6.493,90.427-45.082,126-60c0-0.333,0-0.667,0-1c-11.896,1.354-18.886,8.213-28,12c-29.325,12.185-61.338,29.629-94,34
	c-23.322-31.631-50.792-61.453-74-94C222.667,333.668,214.333,319.332,206,305z"/>
<path fill-rule="evenodd" clip-rule="evenodd" fill="#FFFFFF" d="M600,352c0.667,0,1.333,0,2,0c4.289,4.034,7.488,9.162,8,17
	c-8.399,18.419-14.402,31.438-11,55c0.333,0,0.667,0,1,0c8.993-3.536,10.188-6.935,16-13c0.333,0,0.667,0,1,0c1.667,4,3.333,8,5,12
	c-3.768,25.261-16.998,54.135-35,66c-1-0.333-2-0.667-3-1c-4.333-5.333-8.667-10.667-13-16c0-0.333,0-0.667,0-1
	c7.882-0.204,8.403-1.804,11-7c-2.153-14.124-17.431-20.842-22-34c-0.667-6-1.333-12-2-18c-3.333-1.333-6.667-2.667-10-4
	c-5.022,18.527-28.276,56.122-27,68c3.666-2,7.333-4,11-6c0,0.333,0,0.667,0,1c-8.168,22.446-20.448,31.587-31,49
	c0.667,1.667,1.333,3.333,2,5c7.621-0.005,3.816,2.769,6,7c1.963,2.066,0.375,1.035,4,2c5-1.333,10-2.667,15-4
	c-6.943,16.842-14.416,35.495-26,48c-6,5.666-12,11.334-18,17c5.291,8.197,13.459,10.157,21,16c0,0.333,0,0.667,0,1
	c-5.159,4.554-16.93,13.278-27,9c-16.508-8.696-14.134-41.757-31-50c-5.455,24.97-10.297,61.465-37,64c-0.667-0.333-1.333-0.667-2-1
	c-3.125-18.615-16.621-24.29-20-46c2.667,1.667,5.333,3.333,8,5c2.667-1.667,5.333-3.333,8-5c0-1.333,0-2.667,0-4
	c-8.333-12.332-16.667-24.668-25-37c-3.333-8.333-6.667-16.667-10-25c-1,0.667-2,1.333-3,2c-3.853,12.913-9.566,27.948-17,38
	c-6.711,9.075-17.434,14.658-21,27c0.667,0.333,1.333,0.667,2,1c4.753,0.816,5.933,0.322,10-1c-1,4.333-2,8.667-3,13
	c0.667,0,1.333,0,2,0c1.333,0.333,2.667,0.667,4,1c3-2.333,6-4.667,9-7c0,0.333,0,0.667,0,1c-9.768,32.831-24.209,48.135-39,73
	c0.667,1.667,1.333,3.333,2,5c0.667,0.333,1.333,0.667,2,1c3.666-0.667,7.333-1.333,11-2c0,0.333,0,0.667,0,1
	c-2.48,3.41-4.025,4.395-4,8c0.667,0,1.333,0,2,0c6.505,2.785,13.386-1.554,18-4c-5.768,16.943-22.625,29.287-43,31
	c-26.073-12.945-9.878-106.024-11-142c0-16.998,0-34.001,0-51c12.103-30.325,52.745-40.625,81-55
	c39.996-19.665,80.004-39.335,120-59C523.296,389.267,574.463,371.949,600,352z"/>
<path fill-rule="evenodd" clip-rule="evenodd" fill="none" d="M609,506c6.287-0.192,8.685,0.163,11,4
	c10.238,22.664-15.592,52.521-30,58c-2.309-17.364-15.657-22.936-22-36c-2.061-5.752-0.36-10.305,2-14
	c13.35-0.036,14.208,4.978,20,12c1-0.333,2-0.667,3-1C596.012,520.002,602.687,511.943,609,506z"/>
<path fill-rule="evenodd" clip-rule="evenodd" fill="#FFFFFF" d="M269,550c-1-23.664-2-47.336-3-71
	c-11.999-15.332-24.001-30.668-36-46c-14.332-21.998-28.668-44.002-43-66c-13.666-28.997-27.335-58.003-41-87
	c-6.208-15.012-8.594-33.288-17-46c-1.667,0-3.333,0-5,0c-26.71,26.517-46.461,60.336-70,90c-25.049,31.567-58.068,42.672-70,89
	c0,1,0,2,0,3c2-0.667,4-1.333,6-2c7.838,7.29-0.286,23.652,2,36c3.67,19.83,10.726,31.605,20,45c-2.529,5.887-4.839,8.06-9,12
	c-3.333-1.333-6.667-2.667-10-4c4.62,10.983,26.763,43.346,24,51c-2.065,2.091-2.594,1.888-7,2c0.333,2.667,0.667,5.333,1,8
	c0,0.333,0,0.667,0,1c-4.333,0-8.667,0-13,0c1.926,11.83,6.411,18.352,10,27c4,3.667,8,7.333,12,11c3-7.666,6-15.334,9-23
	c2-1.667,4-3.333,6-5c16.498,22.209,18.083,54.637,37,74c6.132,6.276,82.701,35.555,96,38c7.328-7.354,20.019-17.075,23-28
	c2.557-9.373-3.921-8.442,3-15c0-1,0-2,0-3c-3.192,0.758-5.59,4.763-12,6c-1.667-0.667-3.333-1.333-5-2
	c-0.333-1.667-0.667-3.333-1-5c19.375-17.037,27.477-42.861,37-70c1.667,0.667,3.333,1.333,5,2c15.246,13.399,0.821,56.409,33,64
	c0.333,1.667,0.667,3.333,1,5c-3.372,4.615-5.346,4.441-11,7c1.333,2.667,2.667,5.333,4,8c-1,1.667-2,3.333-3,5
	c-3-1.333-6-2.667-9-4c-6.856,23.036,12.936,47.73,21,61c2.333-0.333,4.667-0.667,7-1C272.339,672.42,269.002,606.777,269,550z
	 M135,466c2.667-1.667,5.333-3.333,8-5c3.667,0.667,7.333,1.333,11,2c8.952,4.861,7.281,16.968,4,26c-2.667,1.667-5.333,3.333-8,5
	c-9.113-0.398-10.942-3.127-16-7C131.99,479.253,132.894,473.607,135,466z M43,452c-7.333-3.333-14.667-6.667-22-10
	c-0.333-7.999-0.667-16.001-1-24c2.333-0.667,4.667-1.333,7-2c6,1.667,12,3.333,18,5c-0.333-7.999-0.667-16.001-1-24c1-1,2-2,3-3
	c7.999,2,16.001,4,24,6c0,9.666,0,19.334,0,29c7.666,3,15.334,6,23,9c0,8.333,0,16.667,0,25c-1,0.667-2,1.333-3,2
	c-9.502,1.488-12.711-2.996-21-5c-0.333,8.333-0.667,16.667-1,25c-0.667,1-1.333,2-2,3c-7.333-2-14.667-4-22-6
	C41.888,475.414,42.724,461.745,43,452z M62,536c21.122,0.809,33.99,12.701,52,18c19.947,5.869,35.895,5.471,50,15
	C182.189,640.751,8.444,583.933,62,536z M192,528c-2.333,2-4.667,4-7,6c-6.064,1.249-11.925,0.516-17-1
	c-3.313-4.566-8.913-12.453-5-21c2.394-6.584,5.262-6.9,11-10c3.333,0.667,6.667,1.333,10,2
	C192.525,507.955,193.498,516.771,192,528z M197,451c-3.358,7.854-9.125,9.64-21,9c-6.961-7.416-9.745-11.72-9-25
	c4.536-5.192,6.583-7.334,13-11C192.322,425.181,205.456,437.338,197,451z M230,495c-2.963,6.345-7.574,7.264-13,11
	c-3.667-1-7.333-2-11-3c-6.491-9.912-5.854-22.039,1-31c2.333-0.667,4.667-1.333,7-2c1.667,0.333,3.333,0.667,5,1
	C228.563,473.995,234.01,484.424,230,495z"/>
<path fill-rule="evenodd" clip-rule="evenodd" fill="#FFFFFF" d="M639,758c1.333,0.333,2.667,0.667,4,1c1,5.666,2,11.334,3,17
	c5.666-0.667,11.334-1.333,17-2c0,0.667,0,1.333,0,2c0,3.333,0,6.667,0,10c-4.624,5.258-13.236,5.947-16,13
	c-3.888,17.693,15.451,30.484,27,37c0.276,8.396-0.959,10.683-4,15c-26.466,7.459-35.43-29.458-40-51c-7.771-2.49-14.019-3.042-19-8
	c1-2.667,2-5.333,3-8c6.141-0.021,8.422-1.016,12-3c0.333-6,0.667-12,1-18C631,761.333,635,759.667,639,758z"/>
<path fill-rule="evenodd" clip-rule="evenodd" fill="#FFFFFF" d="M293,772c4,1.333,8,2.667,12,4c3.891,11.617,0.327,20.595-13,21
	c-4.066-1.957-5.996-2.851-8-7c-3.25-6.203-0.317-11.234,3-16C289,773.333,291,772.667,293,772z"/>
<path fill-rule="evenodd" clip-rule="evenodd" fill="#FFFFFF" d="M152,773c4.433,1.017,4.016,0.661,6,4
	c0.333,12.332,0.667,24.668,1,37c2.667,11.332,5.333,22.668,8,34c-6.239,4.626-15.874,11.262-25,7c-4.541-14.708-17.384-45.958-9-67
	C136.59,779.575,144.263,777.272,152,773z"/>
<path fill-rule="evenodd" clip-rule="evenodd" fill="#FFFFFF" d="M-15,774c6.88,0.563,10.336,4.288,15,5
	c3.333-0.667,6.667-1.333,10-2c1.667,1,3.333,2,5,3c0.667,7.666,1.333,15.334,2,23c19.612-0.588,22.144,4.774,31,14
	c0-0.667,0-1.333,0-2c12.478-12.792,23.344-16.188,39-4c1.35,5.929,2.64,10.592,0,16c-7.309,3.143-13.109,7.537-23,6c1,2,2,4,3,6
	c10.577,0.696,16.93-4.743,24-2c-0.333,3-0.667,6-1,9c-13.789,19-35,4.76-42-10c-0.333,5-0.667,10-1,15
	c-3.547,1.794-4.356,2.61-10,3c-2-1.333-4-2.667-6-4c-0.918-9.149-1.104-23.502-5-30c-0.333,0-0.667,0-1,0c-2,0.667-4,1.333-6,2
	c-0.925,9.315-0.156,24.55-4,31c-7.202,0.936-11.206,1.009-16-2c-3.532-14.504-3.08-34.494-3-53c-5.333,1.333-10.667,2.667-16,4
	c-0.333,15.999-0.667,32.001-1,48c-3.333,1-6.667,2-10,3c-2.667-1.333-5.333-2.667-8-4c-2.649-12.974-2.078-31.094-2-47
	c-5.333-1.333-10.667-2.667-16-4c-2.333-4.687-3.309-8.635-2-15C-50.248,772.587-29.072,779.377-15,774z"/>
<path fill-rule="evenodd" clip-rule="evenodd" fill="#FFFFFF" d="M525,808c-3.553-2.006-5.545-3.059-10-2c-0.667,0-1.333,0-2,0
	c-3.566,5.52-4.754,14.863-5,24c-3,0.667-6,1.333-9,2c-4.347-7.551-3.525-15.834-3-27c-1.333-1-2.667-2-4-3
	c-1.667,0.333-3.333,0.667-5,1c-8.434,3.943-10.514,17.471-10,30c-4.666-0.333-9.334-0.667-14-1c-11.979-27.668,4.31-63.546-37-64
	c-4.666,2-9.334,4-14,6c-17.224,16.292-15.559,67.874,5,79c13.389,7.246,21.333-5.042,33-2c7.004,1.826,12.164,11.892,24,7
	c5.679-1.876,8.211-4.109,9-11c16.101,11.747,17.31,5.375,34,3c4.781-0.681,9.907,4.045,18,4c0-0.667,0-1.333,0-2
	c0.667-1,1.333-2,2-3C526.151,830.804,530.316,829.975,525,808z M435,827c-2.667,0.333-5.333,0.667-8,1
	c-6.205-9.322-6.414-24.937,0-34C441.611,794.689,440.334,816.934,435,827z"/>
<path fill-rule="evenodd" clip-rule="evenodd" fill="#FFFFFF" d="M177,799c7.081,0.459,6.368,1.78,10,5
	c6.037-3.003,19.276-5.142,25,0c8.941,5.7,12.592,30.763,8,43c-7.319,2.357-13.813,3.843-20,0c-0.988-5.897-1.64-16.126-5-20
	c-0.333,0-0.667,0-1,0c-0.333,0.667-0.667,1.333-1,2c-1.04,7.002-1.165,16.285-4,21c-0.667,0.333-1.333,0.667-2,1
	c-3.333-0.333-6.667-0.667-10-1c-9.836-4.873-12.019-30.989-9-45C171,803,174,801,177,799z"/>
<path fill-rule="evenodd" clip-rule="evenodd" fill="#FFFFFF" d="M294,802c2,0.333,4,0.667,6,1c8.692,4.171,12.652,38.33,8,48
	c-5.243,1.593-9.302,2.908-15,2c-2-1.667-4-3.333-6-5C285.758,828.762,279.211,810.511,294,802z"/>
<path fill-rule="evenodd" clip-rule="evenodd" fill="#FFFFFF" d="M628,828c-5.832-3.701-11.188-7.12-19-9c-0.667-2-1.333-4-2-6
	c5,1.333,10,2.667,15,4c1.333-1,2.667-2,4-3c0-1.667,0-3.333,0-5c-5.432-5.901-10.454-10.054-21-11
	c-13.794,5.494-22.527,3.885-22,24c5.462,5.961,8.888,9.285,21,9c0.667,2,1.333,4,2,6c-8.025,1.398-14.047-0.997-22-2
	c-1.333,1-2.667,2-4,3c0,0-18.258-1.229-25-1c-1-2-2-4-3-6c9.488-0.204,20.065-3.021,24-9c1.973-4.489,0.221-9.152-1-13
	c-14.086-10.879-49.24-11.306-46,16c2.925,24.652,30.633,38.497,52,22c14.572,14.408,41.716,10.11,49-7
	C629.333,836,628.667,832,628,828z M555,814c1.667,0,3.333,0,5,0c0.333,0.667,0.667,1.333,1,2c-0.333,0.667-0.667,1.333-1,2
	c-3,0.667-6,1.333-9,2C552.297,815.909,552.645,816.491,555,814z"/>
<path fill-rule="evenodd" clip-rule="evenodd" fill="#FFFFFF" d="M358,837c-1.333-0.667-2.667-1.333-4-2
	c-6.333,0.333-12.667,0.667-19,1c-0.333-0.667-0.667-1.333-1-2c10.632-4.298,19.863-3.276,24-14c2.131-7.45-5.155-13.269-9-18
	c-4.666-1-9.334-2-14-3c-20.275,9.518-26.485,20.591-18,45c7.594,5.555,23.504,11.93,35,5c2.333-2,4.667-4,7-6
	C358.667,841,358.333,839,358,837z M334,815c2,0.333,4,0.667,6,1c0.667,0,1.333,0,2,0c0,0.333,0,0.667,0,1
	c-1.667,1.333-3.333,2.667-5,4c-2,0-4,0-6,0C332,819,333,817,334,815z"/>
<path fill-rule="evenodd" clip-rule="evenodd" fill="#FFFFFF" d="M66,817c-1.691,4.076-1.833,3.908,0,8c0.333,0,0.667,0,1,0
	c2.333-1.333,4.667-2.667,7-4c-0.333-1.333-0.667-2.667-1-4C70.667,817,68.333,817,66,817z"/>
<path fill-rule="evenodd" clip-rule="evenodd" fill="#FFFFFF" d="M274,772c-1.667-0.333-3.333-0.667-5-1
	c-6.28,3.026-10.079,4.51-15,8c-0.333,8.333-0.667,16.667-1,25c-6,1-12,2-18,3c-10.193,14.353-11.222,39.833,9,45
	c11.812,3.018,13.748-6.915,19,2c5.333-1.667,10.667-3.333,16-5C282.055,841.714,277.398,784.165,274,772z M254,834
	c-1.333,1-2.667,2-4,3c-1.333,0-2.667,0-4,0c-2.873-5.768-1.254-8.505,2-13c1.667,0,3.333,0,5,0
	C254.722,827.518,254.896,829.428,254,834z"/>
<path fill-rule="evenodd" clip-rule="evenodd" fill="none" d="M-1133-259"/>
</svg>
